<svg width="18" height="17" viewBox="0 0 18 17" fill="none" xmlns="http://www.w3.org/2000/svg">
<path fill-rule="evenodd" clip-rule="evenodd" d="M9.93814 2.07841C7.5108 -0.352663 3.9128 -0.70263 1.91747 1.29955C-0.0788881 3.3007 0.270241 6.90733 2.69343 9.33945C3.33989 9.98746 4.08477 10.4828 4.87109 10.838C5.12905 9.33529 5.86875 7.89077 6.99177 6.70483C6.61985 6.5719 6.2386 6.45975 5.84078 6.35071C3.48493 5.7027 2.31426 3.73271 2.04075 1.42313C2.26696 1.6958 2.47292 1.9818 2.67827 2.26696C3.0767 2.82023 3.47284 3.37033 4.01018 3.81371C4.84607 4.50362 5.76359 4.76994 6.76737 5.0613C6.80613 5.07255 6.84501 5.08384 6.88403 5.09519C7.35955 5.23331 7.77291 5.43789 8.15208 5.67674C9.14871 4.94669 10.2728 4.46068 11.4331 4.26025C11.0798 3.47205 10.5846 2.72642 9.93814 2.07841ZM5.83353 11.4154C5.98789 9.91061 6.71516 8.43909 7.88065 7.2708C10.308 4.83972 13.906 4.48872 15.9013 6.49194C17.8977 8.49309 17.5496 12.0997 15.1233 14.5318C13.9578 15.7001 12.4898 16.4291 10.9886 16.5849C10.7887 16.6046 10.5908 16.615 10.3971 16.615C9.10623 16.615 7.95317 16.1612 7.10366 15.3097C6.12568 14.3304 5.67398 12.9471 5.83353 11.4154ZM9.38388 12.6501C10.1795 12.0416 11.0404 11.8006 11.977 11.5441C14.3328 10.8961 15.5025 8.92613 15.777 6.61656C15.5527 6.88769 15.3483 7.17174 15.1444 7.45494L15.1444 7.45498C14.7448 8.01022 14.3475 8.56219 13.8076 9.00713C12.9691 9.69817 12.0495 9.96494 11.0412 10.2574L10.9337 10.2886C8.62864 10.9595 7.48905 12.9128 7.2259 15.1861C7.45298 14.9126 7.66099 14.6287 7.86791 14.3463L7.86792 14.3463C8.3171 13.7332 8.76114 13.1272 9.38388 12.6501Z" fill="#0E8784"/>
</svg>
