<svg width="23" height="23" viewBox="0 0 23 23" fill="none" xmlns="http://www.w3.org/2000/svg">
<path fill-rule="evenodd" clip-rule="evenodd" d="M13.2823 3.10471C10.0382 -0.136722 5.22953 -0.603344 2.56282 2.06623C-0.105272 4.73443 0.361333 9.54327 3.59988 12.7861C4.46386 13.6501 5.45937 14.3106 6.51027 14.7841C6.85503 12.7806 7.84363 10.8545 9.34452 9.27327C8.84745 9.09603 8.33792 8.94649 7.80624 8.80111C4.6577 7.93709 3.09312 5.31044 2.72759 2.23101C3.02991 2.59456 3.30517 2.9759 3.57962 3.35611C4.11211 4.09381 4.64154 4.82727 5.35968 5.41844C6.47683 6.33832 7.70308 6.69342 9.04462 7.0819C9.09641 7.0969 9.14838 7.11195 9.20052 7.12708C9.83604 7.31124 10.3885 7.58401 10.8953 7.90248C12.2272 6.92908 13.7295 6.28107 15.2802 6.01383C14.8081 4.96289 14.1463 3.96873 13.2823 3.10471ZM7.79655 15.554C8.00285 13.5476 8.97483 11.5856 10.5325 10.0279C13.7766 6.78646 18.5852 6.31845 21.2519 8.98942C23.92 11.6576 23.4548 16.4665 20.2121 19.7093C18.6545 21.267 16.6925 22.239 14.6862 22.4467C14.419 22.473 14.1546 22.4869 13.8956 22.4869C12.1705 22.4869 10.6294 21.8818 9.49405 20.7464C8.187 19.4407 7.58333 17.5963 7.79655 15.554ZM12.5415 17.2003C13.6049 16.3889 14.7555 16.0677 16.0071 15.7257C19.1557 14.8617 20.7189 12.235 21.0858 9.15557C20.786 9.51711 20.5128 9.89586 20.2403 10.2735C19.7062 11.0138 19.1753 11.7497 18.4537 12.343C17.3331 13.2644 16.104 13.6201 14.7565 14.01L14.7565 14.0101L14.6129 14.0516C11.5322 14.9461 10.0091 17.5506 9.65743 20.5816C9.96091 20.217 10.2389 19.8384 10.5155 19.4619L10.5155 19.4619C11.1158 18.6444 11.7092 17.8364 12.5415 17.2003Z" fill="#0E8784"/>
</svg>
