<svg width="55" height="39" viewBox="0 0 55 39" fill="none" xmlns="http://www.w3.org/2000/svg">
<path fill-rule="evenodd" clip-rule="evenodd" d="M4 0H7V3H4V0ZM0 15H3V18H0V15ZM12.5469 3.24145H10.0227V0H37V27.13C35.3477 28.5589 34.2806 30.6547 34.2122 33H20.6525C20.5262 28.6722 16.9977 25.1899 12.6752 25.1899C8.35282 25.1899 4.82423 28.6721 4.698 33H0V22.319H8.98591C10.1339 22.319 11.0679 21.3775 11.0679 20.22C11.0679 19.0626 10.1339 18.1208 8.98591 18.1208H6.37105V14.8795H20.0538C21.2018 14.8795 22.1357 13.9378 22.1357 12.7803C22.1357 11.6228 21.2018 10.6811 20.0538 10.6811H0V7.43975H12.6752C13.8232 7.43975 14.7571 6.49814 14.7571 5.34065C14.7571 4.22239 13.7242 3.24145 12.5469 3.24145ZM38 34C38 31.243 40.0187 29 42.5 29C44.9813 29 47 31.243 47 34C47 36.757 44.9813 39 42.5 39C40.0187 39 38 36.757 38 34ZM40 4H46.5698L54 15H40V4ZM40 18V25.3782C40.6469 25.2141 41.3242 25.1266 42.0219 25.1266C46.4476 25.1266 50.0605 28.6371 50.1897 33H55V18H40ZM12.5 29C10.0187 29 8 31.243 8 34C8 36.757 10.0187 39 12.5 39C14.9813 39 17 36.757 17 34C17 31.243 14.9813 29 12.5 29ZM40.9831 35.6854H44.0169V32.3146H40.9831V35.6854ZM14.0169 35.6854H10.9831V32.3146H14.0169V35.6854Z" fill="#FDD6BA"/>
</svg>
